<mxfile host="65bd71144e">
    <diagram id="1__IB14poS4x0QzZiISU" name="Page-1">
        <mxGraphModel dx="680" dy="607" grid="1" gridSize="10" guides="1" tooltips="1" connect="1" arrows="1" fold="1" page="1" pageScale="1" pageWidth="850" pageHeight="1100" math="1" shadow="0">
            <root>
                <mxCell id="0"/>
                <mxCell id="1" parent="0"/>
                <mxCell id="14" style="edgeStyle=none;html=1;fontSize=24;strokeWidth=2;" parent="1" edge="1">
                    <mxGeometry relative="1" as="geometry">
                        <mxPoint x="590" y="280" as="targetPoint"/>
                        <mxPoint x="379.99894984181947" y="279.58015253737824" as="sourcePoint"/>
                    </mxGeometry>
                </mxCell>
                <mxCell id="15" value="$$y = g(f(\vec{x},\vec{w}))$$" style="edgeLabel;align=center;verticalAlign=middle;resizable=0;points=[];labelBackgroundColor=none;fontSize=24;html=1;" parent="14" vertex="1" connectable="0">
                    <mxGeometry x="-0.279" y="-1" relative="1" as="geometry">
                        <mxPoint x="36" y="-21" as="offset"/>
                    </mxGeometry>
                </mxCell>
                <mxCell id="2" value="" style="ellipse;whiteSpace=wrap;html=1;aspect=fixed;fontSize=24;" parent="1" vertex="1">
                    <mxGeometry x="320" y="240" width="80" height="80" as="geometry"/>
                </mxCell>
                <mxCell id="3" value="" style="endArrow=classic;html=1;entryX=0;entryY=0;entryDx=0;entryDy=0;fontSize=24;strokeWidth=2;" parent="1" target="2" edge="1">
                    <mxGeometry width="50" height="50" relative="1" as="geometry">
                        <mxPoint x="260" y="210" as="sourcePoint"/>
                        <mxPoint x="332" y="252" as="targetPoint"/>
                    </mxGeometry>
                </mxCell>
                <mxCell id="9" value="$$w_1$$" style="edgeLabel;html=1;align=center;verticalAlign=middle;resizable=0;points=[];labelBackgroundColor=none;fontSize=24;" parent="3" vertex="1" connectable="0">
                    <mxGeometry x="-0.2172" y="1" relative="1" as="geometry">
                        <mxPoint x="5" y="-15" as="offset"/>
                    </mxGeometry>
                </mxCell>
                <mxCell id="4" value="" style="endArrow=classic;html=1;entryX=0;entryY=0.5;entryDx=0;entryDy=0;fontSize=24;strokeWidth=2;" parent="1" target="2" edge="1">
                    <mxGeometry width="50" height="50" relative="1" as="geometry">
                        <mxPoint x="260" y="280" as="sourcePoint"/>
                        <mxPoint x="342" y="262" as="targetPoint"/>
                    </mxGeometry>
                </mxCell>
                <mxCell id="10" value="$$w_i$$" style="edgeLabel;html=1;align=center;verticalAlign=middle;resizable=0;points=[];labelBackgroundColor=none;fontSize=24;" parent="4" vertex="1" connectable="0">
                    <mxGeometry x="-0.0762" y="1" relative="1" as="geometry">
                        <mxPoint x="2" y="-19" as="offset"/>
                    </mxGeometry>
                </mxCell>
                <mxCell id="5" value="" style="endArrow=classic;html=1;entryX=0;entryY=1;entryDx=0;entryDy=0;fontSize=24;strokeWidth=2;" parent="1" target="2" edge="1">
                    <mxGeometry width="50" height="50" relative="1" as="geometry">
                        <mxPoint x="260" y="350" as="sourcePoint"/>
                        <mxPoint x="310" y="330" as="targetPoint"/>
                    </mxGeometry>
                </mxCell>
                <mxCell id="11" value="$$w_n$$" style="edgeLabel;html=1;align=center;verticalAlign=middle;resizable=0;points=[];labelBackgroundColor=none;fontSize=24;" parent="5" vertex="1" connectable="0">
                    <mxGeometry x="-0.1211" relative="1" as="geometry">
                        <mxPoint x="-1" y="-27" as="offset"/>
                    </mxGeometry>
                </mxCell>
                <mxCell id="6" value="$$x_1$$" style="text;html=1;align=center;verticalAlign=middle;resizable=0;points=[];autosize=1;strokeColor=none;fillColor=none;fontSize=24;" parent="1" vertex="1">
                    <mxGeometry x="185" y="185" width="120" height="40" as="geometry"/>
                </mxCell>
                <mxCell id="7" value="$$x_i$$" style="text;html=1;align=center;verticalAlign=middle;resizable=0;points=[];autosize=1;strokeColor=none;fillColor=none;fontSize=24;" parent="1" vertex="1">
                    <mxGeometry x="190" y="255" width="110" height="40" as="geometry"/>
                </mxCell>
                <mxCell id="8" value="$$x_n$$" style="text;html=1;align=center;verticalAlign=middle;resizable=0;points=[];autosize=1;strokeColor=none;fillColor=none;fontSize=24;" parent="1" vertex="1">
                    <mxGeometry x="185" y="330" width="120" height="40" as="geometry"/>
                </mxCell>
                <mxCell id="12" value="&lt;div style=&quot;line-height: 50%;&quot;&gt;&lt;span style=&quot;background-color: transparent;&quot;&gt;.&lt;/span&gt;&lt;/div&gt;&lt;div style=&quot;line-height: 50%;&quot;&gt;&lt;span style=&quot;background-color: transparent;&quot;&gt;.&lt;/span&gt;&lt;/div&gt;&lt;div style=&quot;line-height: 50%;&quot;&gt;&lt;span style=&quot;background-color: transparent;&quot;&gt;.&lt;/span&gt;&lt;/div&gt;" style="text;html=1;align=center;verticalAlign=middle;resizable=0;points=[];autosize=1;strokeColor=none;fillColor=none;fontSize=24;" parent="1" vertex="1">
                    <mxGeometry x="230" y="210" width="30" height="50" as="geometry"/>
                </mxCell>
                <mxCell id="13" value="&lt;div style=&quot;line-height: 50%;&quot;&gt;&lt;span style=&quot;background-color: transparent;&quot;&gt;.&lt;/span&gt;&lt;/div&gt;&lt;div style=&quot;line-height: 50%;&quot;&gt;&lt;span style=&quot;background-color: transparent;&quot;&gt;.&lt;/span&gt;&lt;/div&gt;&lt;div style=&quot;line-height: 50%;&quot;&gt;&lt;span style=&quot;background-color: transparent;&quot;&gt;.&lt;/span&gt;&lt;/div&gt;" style="text;html=1;align=center;verticalAlign=middle;resizable=0;points=[];autosize=1;strokeColor=none;fillColor=none;fontSize=24;" parent="1" vertex="1">
                    <mxGeometry x="230" y="280" width="30" height="50" as="geometry"/>
                </mxCell>
            </root>
        </mxGraphModel>
    </diagram>
</mxfile>